<svg xmlns="http://www.w3.org/2000/svg" width="72" height="72" viewBox="0 0 72 72" role="img" aria-label="ECOWASTE logo">
  <defs>
    <linearGradient id="g" x1="0" x2="1" y1="0" y2="1">
      <stop offset="0%" stop-color="#76c043"/>
      <stop offset="100%" stop-color="#2e7d32"/>
    </linearGradient>
  </defs>
  <rect width="72" height="72" rx="14" fill="#f3fbf3"/>
  <g transform="translate(8 8)">
    <path d="M30 4c-12 2-22 12-22 24 0 9 6 16 14 18 1 0 2 0 3-1 4-2 6-6 6-10 0-4-2-7-6-8-1 0-2 0-3 1-2 1-3 3-3 5" fill="url(#g)"/>
    <path d="M36 6c10 4 16 14 14 24-2 10-12 18-24 16-3 0-6-1-8-2 6 2 14 0 19-5 7-7 10-18 7-31z" fill="#a3d77a" opacity="0.95"/>
  </g>
</svg>